<?xml version="1.0" standalone="no"?>
<!DOCTYPE svg PUBLIC "-//W3C//DTD SVG 20010904//EN"
 "http://www.w3.org/TR/2001/REC-SVG-20010904/DTD/svg10.dtd">
<svg version="1.0" xmlns="http://www.w3.org/2000/svg"
 width="256.000000pt" height="256.000000pt" viewBox="0 0 256.000000 256.000000"
 preserveAspectRatio="xMidYMid meet">
<metadata>
Created by potrace 1.16, written by Peter Selinger 2001-2019
</metadata>
<g transform="translate(0.000000,256.000000) scale(0.033640,-0.030513)"
fill="#00D9F5" stroke="none">
<path d="M308 8048 c-4 -118 5 -196 33 -283 66 -198 109 -246 689 -765 175
-156 808 -710 1360 -1190 300 -261 633 -551 739 -645 107 -93 233 -204 280
-244 121 -105 299 -285 352 -356 151 -199 219 -399 206 -605 -14 -201 -79
-362 -222 -545 -86 -110 -184 -201 -530 -490 -592 -495 -898 -768 -1172 -1046
-265 -269 -373 -401 -480 -582 -108 -183 -153 -320 -153 -467 0 -259 148 -439
415 -505 86 -21 405 -42 334 -22 -189 54 -260 92 -295 159 -54 105 56 212 681
663 526 380 939 664 1865 1283 629 421 837 564 1003 690 394 297 594 543 668
822 29 107 31 263 6 360 -70 262 -260 474 -672 750 -266 178 -920 562 -1575
925 -157 87 -319 177 -360 200 -65 37 -331 182 -515 280 -75 40 -712 377 -860
455 -60 32 -330 171 -600 310 -551 284 -675 351 -790 426 -165 108 -280 229
-351 370 -27 52 -49 94 -51 94 -2 0 -4 -19 -5 -42z"/>
<path d="M6665 1069 c-618 -41 -1681 -141 -3030 -285 -318 -34 -355 -39 -344
-47 16 -12 1602 -195 2169 -251 464 -46 1083 -86 1375 -89 179 -2 194 -1 253
22 80 30 162 103 196 174 38 78 44 158 17 247 -19 62 -31 82 -79 130 -83 83
-141 103 -302 106 -69 1 -183 -2 -255 -7z"/>
</g>
</svg>
